<svg id="visual" viewBox="0 0 570 1045" width="100%" height="100%" xmlns="http://www.w3.org/2000/svg"
    xmlns:xlink="http://www.w3.org/1999/xlink" version="1.1">
    <rect x="0" y="0" width="100%" height="100%" fill="transparent"></rect>
    <defs>
        <linearGradient id="grad1_0" x1="0%" y1="100%" x2="100%" y2="0%">
            <stop offset="30%" stop-color="#1688ad" stop-opacity="1"></stop>
            <stop offset="70%" stop-color="#1688ad" stop-opacity="1"></stop>
        </linearGradient>
    </defs>
    <defs>
        <linearGradient id="grad1_1" x1="0%" y1="100%" x2="100%" y2="0%">
            <stop offset="30%" stop-color="#1688ad" stop-opacity="1"></stop>
            <stop offset="70%" stop-color="#67a5c1" stop-opacity="1"></stop>
        </linearGradient>
    </defs>
    <defs>
        <linearGradient id="grad1_2" x1="0%" y1="100%" x2="100%" y2="0%">
            <stop offset="30%" stop-color="#9cc2d6" stop-opacity="1"></stop>
            <stop offset="70%" stop-color="#67a5c1" stop-opacity="1"></stop>
        </linearGradient>
    </defs>
    <defs>
        <linearGradient id="grad1_3" x1="0%" y1="100%" x2="100%" y2="0%">
            <stop offset="30%" stop-color="#9cc2d6" stop-opacity="1"></stop>
            <stop offset="70%" stop-color="#cee0ea" stop-opacity="1"></stop>
        </linearGradient>
    </defs>
    <defs>
        <linearGradient id="grad1_4" x1="0%" y1="100%" x2="100%" y2="0%">
            <stop offset="30%" stop-color="#ffffff" stop-opacity="1"></stop>
            <stop offset="70%" stop-color="#cee0ea" stop-opacity="1"></stop>
        </linearGradient>
    </defs>
    <defs>
        <linearGradient id="grad2_0" x1="0%" y1="100%" x2="100%" y2="0%">
            <stop offset="30%" stop-color="#1688ad" stop-opacity="1"></stop>
            <stop offset="70%" stop-color="#1688ad" stop-opacity="1"></stop>
        </linearGradient>
    </defs>
    <defs>
        <linearGradient id="grad2_1" x1="0%" y1="100%" x2="100%" y2="0%">
            <stop offset="30%" stop-color="#67a5c1" stop-opacity="1"></stop>
            <stop offset="70%" stop-color="#1688ad" stop-opacity="1"></stop>
        </linearGradient>
    </defs>
    <defs>
        <linearGradient id="grad2_2" x1="0%" y1="100%" x2="100%" y2="0%">
            <stop offset="30%" stop-color="#67a5c1" stop-opacity="1"></stop>
            <stop offset="70%" stop-color="#9cc2d6" stop-opacity="1"></stop>
        </linearGradient>
    </defs>
    <defs>
        <linearGradient id="grad2_3" x1="0%" y1="100%" x2="100%" y2="0%">
            <stop offset="30%" stop-color="#cee0ea" stop-opacity="1"></stop>
            <stop offset="70%" stop-color="#9cc2d6" stop-opacity="1"></stop>
        </linearGradient>
    </defs>
    <defs>
        <linearGradient id="grad2_4" x1="0%" y1="100%" x2="100%" y2="0%">
            <stop offset="30%" stop-color="#cee0ea" stop-opacity="1"></stop>
            <stop offset="70%" stop-color="#ffffff" stop-opacity="1"></stop>
        </linearGradient>
    </defs>
    <g transform="translate(570, 1045)">

        <path
            d="M-307.8 0C-304.5 -40.6 -301.1 -81.1 -284.4 -117.8C-267.6 -154.5 -237.4 -187.3 -203.2 -203.2C-169.1 -219.2 -131 -218.2 -96.4 -232.8C-61.9 -247.4 -31 -277.6 0 -307.8L0 0Z"
            fill="#82b3cb"></path>
        <path
            d="M-205.2 0C-203 -27 -200.8 -54.1 -189.6 -78.5C-178.4 -103 -158.3 -124.9 -135.5 -135.5C-112.7 -146.1 -87.3 -145.5 -64.3 -155.2C-41.3 -165 -20.6 -185.1 0 -205.2L0 0Z"
            fill="#4796b7"></path>
        <path
            d="M-102.6 0C-101.5 -13.5 -100.4 -27 -94.8 -39.3C-89.2 -51.5 -79.1 -62.4 -67.7 -67.7C-56.4 -73.1 -43.7 -72.7 -32.1 -77.6C-20.6 -82.5 -10.3 -92.5 0 -102.6L0 0Z"
            fill="#1688ad"></path>
    </g>
    <g transform="translate(0, 0)">
     
  
        <path
            d="M307.8 0C289.3 38.2 270.9 76.3 247.2 102.4C223.6 128.5 194.8 142.6 175.2 175.2C155.7 207.9 145.4 259.2 117.8 284.4C90.1 309.6 45.1 308.7 0 307.8L0 0Z"
            fill="#82b3cb"></path>
        <path
            d="M205.2 0C192.9 25.4 180.6 50.9 164.8 68.3C149.1 85.7 129.8 95 116.8 116.8C103.8 138.6 97 172.8 78.5 189.6C60.1 206.4 30 205.8 0 205.2L0 0Z"
            fill="#4796b7"></path>
        <path
            d="M102.6 0C96.4 12.7 90.3 25.4 82.4 34.1C74.5 42.8 64.9 47.5 58.4 58.4C51.9 69.3 48.5 86.4 39.3 94.8C30 103.2 15 102.9 0 102.6L0 0Z"
            fill="#1688ad"></path>
    </g>
</svg>